<?xml version="1.0" encoding="iso-8859-1"?>
<!-- Generator: Adobe Illustrator 19.0.0, SVG Export Plug-In . SVG Version: 6.00 Build 0)  -->
<svg version="1.1" id="Capa_1" xmlns="http://www.w3.org/2000/svg" xmlns:xlink="http://www.w3.org/1999/xlink" x="0px" y="0px"
	 viewBox="0 0 511.993 511.993" style="enable-background:new 0 0 511.993 511.993;" xml:space="preserve">
<linearGradient id="SVGID_1_" gradientUnits="userSpaceOnUse" x1="69.654" y1="448.2119" x2="416.1364" y2="101.7296" gradientTransform="matrix(1.0449 0 0 -1.0449 2.1993 543.3086)">
	<stop  offset="0" style="stop-color:#FF9272"/>
	<stop  offset="1" style="stop-color:#F53B19"/>
</linearGradient>
<circle style="fill:url(#SVGID_1_);" cx="255.996" cy="255.996" r="255.996"/>
<linearGradient id="SVGID_2_" gradientUnits="userSpaceOnUse" x1="146.8952" y1="385.3092" x2="343.9052" y2="385.3092" gradientTransform="matrix(1.0449 0 0 -1.0449 2.1993 543.3086)">
	<stop  offset="0" style="stop-color:#5B5A5F"/>
	<stop  offset="1" style="stop-color:#000000"/>
</linearGradient>
<path style="fill:url(#SVGID_2_);" d="M350.28,225.686h-34.719v-75.682c0-32.842-26.719-59.56-59.56-59.56
	s-59.561,26.719-59.561,59.56v75.682H161.72v-75.682c0-51.986,42.294-94.28,94.28-94.28s94.281,42.294,94.281,94.28V225.686z"/>
<linearGradient id="SVGID_3_" gradientUnits="userSpaceOnUse" x1="146.8952" y1="216.8417" x2="343.9052" y2="216.8417" gradientTransform="matrix(1.0449 0 0 -1.0449 2.1993 543.3086)">
	<stop  offset="0" style="stop-color:#FFDB2D"/>
	<stop  offset="1" style="stop-color:#FFA91F"/>
</linearGradient>
<path style="fill:url(#SVGID_3_);" d="M332.431,427.355H179.569c-35.093,0-63.807-28.713-63.807-63.807v-126.76
	c0-16.871,13.804-30.675,30.675-30.675h219.126c16.871,0,30.675,13.804,30.675,30.675v126.76
	C396.237,398.642,367.524,427.355,332.431,427.355z"/>
<linearGradient id="SVGID_4_" gradientUnits="userSpaceOnUse" x1="146.8952" y1="216.8457" x2="343.9052" y2="216.8457" gradientTransform="matrix(1.0449 0 0 -1.0449 2.1993 543.3086)">
	<stop  offset="0" style="stop-color:#FFFFFF"/>
	<stop  offset="1" style="stop-color:#E4E4E4"/>
</linearGradient>
<rect x="142.282" y="275.546" style="fill:url(#SVGID_4_);" width="227.44" height="82.368"/>
<linearGradient id="SVGID_5_" gradientUnits="userSpaceOnUse" x1="146.8952" y1="216.8382" x2="343.9052" y2="216.8382" gradientTransform="matrix(1.0449 0 0 -1.0449 2.1993 543.3086)">
	<stop  offset="0" style="stop-color:#5B5A5F"/>
	<stop  offset="1" style="stop-color:#000000"/>
</linearGradient>
<rect x="150.484" y="284.407" style="fill:url(#SVGID_5_);" width="211.025" height="64.663"/>
<rect x="255.996" y="284.407" style="fill:#171719;" width="105.512" height="64.663"/>
<linearGradient id="SVGID_6_" gradientUnits="userSpaceOnUse" x1="146.8952" y1="216.8417" x2="343.9052" y2="216.8417" gradientTransform="matrix(1.0449 0 0 -1.0449 2.1993 543.3086)">
	<stop  offset="0" style="stop-color:#FFFFFF"/>
	<stop  offset="1" style="stop-color:#E4E4E4"/>
</linearGradient>
<polygon style="fill:url(#SVGID_6_);" points="213.25,307.41 208.258,300.194 196.45,308.363 196.45,294.005 187.675,294.005 
	187.675,308.363 175.866,300.194 170.874,307.41 184.35,316.734 170.874,326.059 175.866,333.275 187.675,325.106 187.675,339.464 
	196.45,339.464 196.45,325.106 208.258,333.275 213.25,326.059 199.773,316.734 "/>
<polygon style="fill:#FFFFFF;" points="277.189,307.41 272.195,300.194 260.388,308.363 260.388,294.005 251.612,294.005 
	251.612,308.363 239.805,300.194 234.811,307.41 248.288,316.734 234.811,326.059 239.805,333.275 251.612,325.106 251.612,339.464 
	260.388,339.464 260.388,325.106 272.195,333.275 277.189,326.059 263.712,316.734 "/>
<linearGradient id="SVGID_7_" gradientUnits="userSpaceOnUse" x1="146.8952" y1="216.8417" x2="343.9052" y2="216.8417" gradientTransform="matrix(1.0449 0 0 -1.0449 2.1993 543.3086)">
	<stop  offset="0" style="stop-color:#FFFFFF"/>
	<stop  offset="1" style="stop-color:#E4E4E4"/>
</linearGradient>
<polygon style="fill:url(#SVGID_7_);" points="341.127,307.41 336.134,300.194 324.326,308.363 324.326,294.005 315.551,294.005 
	315.551,308.363 303.743,300.194 298.75,307.41 312.227,316.734 298.75,326.059 303.743,333.275 315.551,325.106 315.551,339.464 
	324.326,339.464 324.326,325.106 336.134,333.275 341.127,326.059 327.65,316.734 "/>
<g>
</g>
<g>
</g>
<g>
</g>
<g>
</g>
<g>
</g>
<g>
</g>
<g>
</g>
<g>
</g>
<g>
</g>
<g>
</g>
<g>
</g>
<g>
</g>
<g>
</g>
<g>
</g>
<g>
</g>
</svg>
